
<svg version="1.0" xmlns="http://www.w3.org/2000/svg"
 width="512.000000pt" height="512.000000pt" viewBox="0 0 512.000000 512.000000"
 preserveAspectRatio="xMidYMid meet">

<g transform="translate(0.000000,512.000000) scale(0.100000,-0.100000)"
fill="#000000" stroke="none">
<path d="M2355 5110 c-618 -55 -1158 -304 -1591 -735 -77 -77 -167 -174 -200
-215 -292 -370 -476 -804 -540 -1270 -23 -169 -23 -491 0 -660 64 -471 245
-895 541 -1271 85 -108 326 -343 435 -425 427 -320 865 -485 1395 -525 597
-45 1209 137 1698 505 439 329 774 811 922 1328 130 451 137 904 20 1364 -45
177 -91 298 -185 489 -133 269 -292 487 -513 702 -385 374 -870 614 -1402 694
-151 23 -435 32 -580 19z m-509 -1611 c205 -36 369 -150 448 -312 28 -57 56
-170 56 -229 l0 -38 -124 0 -123 0 -7 58 c-13 118 -92 235 -193 285 -94 48
-228 60 -338 31 -145 -37 -247 -139 -314 -313 -25 -65 -25 -71 -29 -386 -4
-362 1 -405 66 -529 90 -172 232 -256 432 -256 146 0 254 33 343 102 l37 30 0
209 0 209 -210 0 -210 0 0 100 0 100 340 0 340 0 0 -341 0 -341 -57 -57 c-153
-152 -357 -219 -636 -209 -109 4 -146 10 -212 32 -184 63 -321 182 -412 357
-72 138 -78 184 -78 569 0 320 1 339 23 414 39 134 95 230 192 327 96 96 180
145 310 178 86 23 259 28 356 10z m1682 -66 c11 -32 157 -448 326 -924 168
-477 306 -870 306 -873 0 -3 -58 -6 -129 -6 l-129 0 -30 83 c-16 45 -53 153
-81 240 l-53 157 -346 -2 -346 -3 -81 -235 -82 -235 -133 -3 c-104 -2 -131 0
-128 10 3 7 150 416 328 907 177 492 326 905 331 918 8 22 13 23 118 23 l109
0 20 -57z"/>
<path d="M3262 2727 c-73 -210 -132 -385 -132 -389 0 -8 530 -12 530 -4 0 5
-260 770 -263 773 -2 1 -62 -170 -135 -380z"/>
</g>
</svg>
